<svg width="560" height="440" viewBox="0 0 560 440" fill="none" xmlns="http://www.w3.org/2000/svg" role="img" aria-label="TDS filing illustration">
  <defs>
    <linearGradient id="bg" x1="0" y1="0" x2="1" y2="1">
      <stop offset="0" stop-color="#eaf2ff"/>
      <stop offset="1" stop-color="#d4e6ff"/>
    </linearGradient>
    <linearGradient id="card" x1="0" y1="0" x2="0" y2="1">
      <stop offset="0" stop-color="#ffffff"/>
      <stop offset="1" stop-color="#f3f8ff"/>
    </linearGradient>
  </defs>
  <rect x="20" y="20" width="520" height="400" rx="28" fill="url(#bg)"/>
  <rect x="70" y="70" width="300" height="300" rx="20" fill="url(#card)" stroke="#cfe0fb" stroke-width="2"/>
  <rect x="100" y="104" width="160" height="16" rx="8" fill="#1366d6"/>
  <rect x="100" y="140" width="240" height="10" rx="5" fill="#dbe7fa"/>
  <rect x="100" y="162" width="200" height="10" rx="5" fill="#dbe7fa"/>
  <rect x="100" y="184" width="220" height="10" rx="5" fill="#dbe7fa"/>
  <rect x="100" y="222" width="240" height="44" rx="10" fill="#eaf2ff" stroke="#cfe0fb" stroke-width="2"/>
  <text x="116" y="250" font-family="Segoe UI, Arial, sans-serif" font-size="16" font-weight="700" fill="#0f2742">Form 26Q / 24Q</text>
  <rect x="100" y="284" width="240" height="44" rx="10" fill="#1366d6"/>
  <text x="150" y="312" font-family="Segoe UI, Arial, sans-serif" font-size="16" font-weight="700" fill="#fff">File TDS Return</text>
  <circle cx="430" cy="150" r="64" fill="#25d366"/>
  <path d="M404 150l16 16 32-36" stroke="#fff" stroke-width="10" stroke-linecap="round" stroke-linejoin="round" fill="none"/>
  <rect x="372" y="248" width="120" height="120" rx="20" fill="#0f2742"/>
  <text x="432" y="300" text-anchor="middle" font-family="Segoe UI, Arial, sans-serif" font-size="34" font-weight="800" fill="#fff">TDS</text>
  <text x="432" y="336" text-anchor="middle" font-family="Segoe UI, Arial, sans-serif" font-size="13" font-weight="600" fill="#7fb0ff">FILED FAST</text>
</svg>
